<?xml version="1.0" encoding="utf-8"?>
<!-- Svg Vector Icons : http://www.onlinewebfonts.com/icon -->
<!DOCTYPE svg PUBLIC "-//W3C//DTD SVG 1.1//EN" "http://www.w3.org/Graphics/SVG/1.1/DTD/svg11.dtd">
<svg version="1.1" xmlns="http://www.w3.org/2000/svg" xmlns:xlink="http://www.w3.org/1999/xlink" id="song" x="0px" y="0px" viewBox="0 0 1000 1000" enable-background="new 0 0 1000 1000" xml:space="preserve">
<g><path d="M622.5,540.8c-33.8,0-61.2,27.5-61.2,61.3c0,33.8,27.5,61.3,61.2,61.3c33.8,0,61.3-27.5,61.3-61.3C683.8,568.3,656.3,540.8,622.5,540.8z"/><path d="M295.8,622.5c-33.8,0-61.3,27.5-61.3,61.3c0,33.8,27.5,61.3,61.3,61.3s61.3-27.5,61.3-61.3C357.1,650,329.6,622.5,295.8,622.5z"/><path d="M500,10C229.4,10,10,229.4,10,500c0,270.6,219.4,490,490,490s490-219.4,490-490C990,229.4,770.6,10,500,10z M724.6,602.1c0,56.3-45.8,102.1-102.1,102.1c-56.3,0-102.1-45.8-102.1-102.1c0-56.3,45.8-102.1,102.1-102.1c23.1,0,44.1,8,61.3,20.9v-301l-285.8,71.5v392.4c0,56.3-45.8,102.1-102.1,102.1c-56.3,0-102.1-45.8-102.1-102.1c0-56.3,45.8-102.1,102.1-102.1c23.1,0,44.1,8,61.3,20.9V275.4c0-9.4,6.4-17.5,15.5-19.8l326.7-81.7c6.1-1.5,12.6-0.2,17.5,3.7c5,3.9,7.9,9.8,7.9,16.1V602.1z"/></g>
</svg>